<svg width="400" height="38" viewBox="0 0 400 38" fill="none" xmlns="http://www.w3.org/2000/svg">
<path d="M362.621 30.5333C362.533 29.7333 362.31 28.9333 361.955 28.2666C361.955 28.2222 361.91 28.1777 361.91 28.1777C360.844 26.2666 358.799 24.9333 356.444 24.9333C353.021 24.9333 350.221 27.7333 350.221 31.1555C350.221 34.5777 353.021 37.3777 356.444 37.3777C358.799 37.3777 360.844 36.0888 361.91 34.1333C361.91 34.0888 361.955 34.0444 361.955 34.0444C362.31 33.3333 362.577 32.5777 362.621 31.7777C362.621 31.5555 362.666 31.3777 362.666 31.1555C362.666 30.9333 362.621 30.711 362.621 30.5333ZM356.444 36.1333C353.688 36.1333 351.466 33.911 351.466 31.1555C351.466 28.4 353.688 26.1777 356.444 26.1777C359.199 26.1777 361.421 28.4 361.421 31.1555C361.421 33.911 359.155 36.1333 356.444 36.1333Z" fill="#E84E0F"/>
<path d="M381.287 30.5333C381.198 29.7333 380.976 28.9333 380.62 28.2666C380.62 28.2222 380.576 28.1777 380.576 28.1777C379.509 26.2666 377.465 24.9333 375.109 24.9333C372.753 24.9333 370.709 26.2222 369.642 28.1777C369.642 28.2222 369.598 28.2666 369.598 28.2666C369.242 28.9777 368.976 29.7333 368.931 30.5333C368.931 30.7555 368.887 30.9333 368.887 31.1555C368.887 31.3777 368.887 31.5555 368.931 31.7777C369.02 32.5777 369.242 33.3777 369.598 34.0444C369.598 34.0888 369.642 34.1333 369.642 34.1333C370.709 36.0444 372.753 37.3777 375.109 37.3777C377.465 37.3777 379.509 36.0888 380.576 34.1333C380.576 34.0888 380.62 34.0444 380.62 34.0444C380.976 33.3333 381.242 32.5777 381.287 31.7777C381.287 31.5555 381.331 31.3777 381.331 31.1555C381.331 30.9333 381.331 30.711 381.287 30.5333ZM375.109 36.1333C372.353 36.1333 370.131 33.911 370.131 31.1555C370.131 28.4 372.353 26.1777 375.109 26.1777C377.865 26.1777 380.087 28.4 380.087 31.1555C380.087 33.911 377.865 36.1333 375.109 36.1333Z" fill="#E84E0F"/>
<path d="M393.777 24.9333C391.421 24.9333 389.377 26.2222 388.31 28.1777C388.31 28.2222 388.266 28.2666 388.266 28.2666C387.91 28.9777 387.644 29.7333 387.599 30.5333C387.599 30.7555 387.555 30.9333 387.555 31.1555C387.555 31.3777 387.555 31.5555 387.599 31.7777C387.688 32.5777 387.91 33.3777 388.266 34.0444C388.266 34.0888 388.31 34.1333 388.31 34.1333C389.377 36.0444 391.421 37.3777 393.777 37.3777C397.199 37.3777 399.999 34.5777 399.999 31.1555C399.999 27.6889 397.199 24.9333 393.777 24.9333ZM393.777 36.1333C391.021 36.1333 388.799 33.911 388.799 31.1555C388.799 28.4 391.021 26.1777 393.777 26.1777C396.532 26.1777 398.755 28.4 398.755 31.1555C398.755 33.911 396.532 36.1333 393.777 36.1333Z" fill="#E84E0F"/>
<path d="M387.599 31.7777C387.688 32.5777 387.91 33.3777 388.266 34.0444C387.51 32.711 386.088 31.7777 384.443 31.7777C382.799 31.7777 381.377 32.7111 380.621 34.0444C380.977 33.3333 381.243 32.5777 381.288 31.7777C381.288 31.5555 381.332 31.3777 381.332 31.1555C381.332 30.9333 381.332 30.7555 381.288 30.5333C381.199 29.7333 380.977 28.9333 380.621 28.2666C381.377 29.6 382.799 30.5333 384.443 30.5333C386.088 30.5333 387.51 29.6 388.266 28.2666C387.91 28.9777 387.644 29.7333 387.599 30.5333C387.599 30.7555 387.555 30.9333 387.555 31.1555C387.555 31.3333 387.555 31.5555 387.599 31.7777Z" fill="#E84E0F"/>
<path d="M368.889 31.7777C368.978 32.5777 369.2 33.3777 369.556 34.0444C368.8 32.7111 367.378 31.7777 365.734 31.7777C364.089 31.7777 362.667 32.7111 361.912 34.0444C362.267 33.3333 362.534 32.5777 362.578 31.7777C362.578 31.5555 362.623 31.3777 362.623 31.1555C362.623 30.9333 362.623 30.7555 362.578 30.5333C362.489 29.7333 362.267 28.9333 361.912 28.2666C362.667 29.6 364.089 30.5333 365.734 30.5333C367.378 30.5333 368.8 29.6 369.556 28.2666C369.2 28.9777 368.934 29.7333 368.889 30.5333C368.889 30.7555 368.845 30.9333 368.845 31.1555C368.889 31.3333 368.889 31.5555 368.889 31.7777Z" fill="#E84E0F"/>
<path d="M373.377 21.1999H350.221V17.2888C350.221 13.5999 352.621 11.2444 358.044 11.2444H365.688C369.866 11.2444 371.155 10.2222 371.155 7.06664C371.155 3.46666 370.132 2.13335 365.688 2.13335H358.044C353.866 2.13335 352.799 3.5111 352.799 5.86664H350.399C350.399 1.82222 352.933 0 358.044 0H365.688C371.644 0 373.332 1.68889 373.332 7.06664C373.332 11.4666 371.91 13.3333 365.644 13.3333H357.999C353.688 13.3333 352.399 15.2 352.399 17.2444V19.0666H373.377V21.1999Z" fill="white"/>
<path d="M380.399 14.5334L394.933 2.7112V12.4445H397.155V0.266764H394.755L377.155 14.4889V16.6667H394.933V21.2H397.155V16.6667H399.999V14.5334H380.399Z" fill="white"/>
<path d="M3.86665 37.3776H0V0.0444336H3.86665V37.3776Z" fill="white"/>
<path d="M51.11 0V3.77776H32.8879V37.3776H29.0213V3.77776H10.888V0H51.11Z" fill="white"/>
<path d="M102.667 24.3556V26.9333C102.667 32.4444 105.823 34.1333 110.045 34.1333H122.667C126.978 34.1333 128.845 31.8667 128.845 28.8444H132.712C132.712 32.7111 130.623 37.3333 123.289 37.3333H110.223C102.49 37.3333 98.8007 34 98.8007 27.4222V20.4445C98.8007 15.6 102.801 10.6667 110.09 10.6667H121.289C128.934 10.6667 132.712 15.0667 132.712 20.0445V24.3556H102.667ZM121.689 13.9112H109.512C105.467 13.9112 102.667 16.7556 102.667 21.1111H128.845C128.845 16.6667 126.134 13.9112 121.689 13.9112Z" fill="white"/>
<path d="M141.734 34.1332H162.445V10.7555H166.311V34.1332H187.022V10.7555H190.889V37.3332H137.867V10.7555H141.734V34.1332Z" fill="white"/>
<path d="M200.399 24.3556V26.9333C200.399 32.4444 203.555 34.1333 207.777 34.1333H220.355C224.666 34.1333 226.532 31.8667 226.532 28.8444H230.399C230.399 32.7111 228.31 37.3333 220.977 37.3333H207.91C200.177 37.3333 196.488 34 196.488 27.4222V20.4445C196.488 15.6 200.488 10.6667 207.777 10.6667H218.977C226.621 10.6667 230.399 15.0667 230.399 20.0445V24.3556H200.399ZM219.421 13.9112H207.244C203.199 13.9112 200.399 16.7556 200.399 21.1111H226.577C226.577 16.6667 223.866 13.9112 219.421 13.9112Z" fill="white"/>
<path d="M239.998 37.3777H236.131V10.8H239.998V21.6889H265.731V10.8H269.598V37.3777H265.731V24.8888H239.998V37.3777Z" fill="white"/>
<path d="M279.732 34.3555H280.977L302.888 10.8H309.332V37.3777H305.466V13.8222H304.399L282.488 37.3777H275.866V10.8H279.732V34.3555Z" fill="white"/>
<path d="M80.8444 0H55.6445V3.77776H81.9999C88.0443 3.77776 90.0888 5.55555 90.0888 11.1555C90.0888 16.9333 87.8666 18.1333 82.3999 18.1333H55.6445V37.3332H59.5111V21.8666H80.8888C90.2666 21.8666 93.9554 19.8222 93.9554 11.4666C93.9554 3.15556 90.0888 0 80.8444 0Z" fill="white"/>
<path d="M323.376 23.7777C318.532 23.7777 317.554 22.3999 317.554 19.9111V17.9555C317.554 15.6 318.665 13.9555 323.421 13.9555H346.443V10.7111H322.621C316.932 10.7111 313.687 12.8444 313.687 17.5111V20.7555C313.687 24.3999 316.176 26.9777 321.954 26.9777H323.065L311.332 37.3332H316.843L327.598 26.9777H342.576V37.3332H346.443V23.7777H323.376Z" fill="white"/>
</svg>
