<svg width="57" height="57" viewBox="0 0 57 57" fill="none" xmlns="http://www.w3.org/2000/svg">
<path d="M28.4883 4.75C23.791 4.75 19.1992 6.14291 15.2935 8.7526C11.3878 11.3623 8.34373 15.0715 6.54615 19.4113C4.74857 23.751 4.27824 28.5263 5.19464 33.1334C6.11104 37.7404 8.37301 41.9723 11.6945 45.2938C15.016 48.6153 19.2478 50.8773 23.8549 51.7937C28.4619 52.7101 33.2373 52.2397 37.577 50.4421C41.9168 48.6446 45.626 45.6005 48.2357 41.6948C50.8454 37.7891 52.2383 33.1973 52.2383 28.5C52.2385 25.381 51.6244 22.2926 50.431 19.411C49.2375 16.5294 47.4881 13.9111 45.2827 11.7056C43.0772 9.50019 40.4589 7.75079 37.5773 6.55733C34.6957 5.36388 31.6073 4.74974 28.4883 4.75ZM36.0396 40.7371C35.9507 40.9588 35.8155 41.1589 35.6429 41.324C35.4704 41.4891 35.2645 41.6154 35.0392 41.6945C34.8138 41.7735 34.5742 41.8035 34.3363 41.7824C34.0984 41.7612 33.8678 41.6895 33.6599 41.5719L27.2125 36.5622L23.0745 40.3798C22.9785 40.4507 22.8662 40.4963 22.7479 40.5125C22.6296 40.5287 22.5092 40.5148 22.3977 40.4722L23.1909 33.3746L23.2163 33.3948L23.2325 33.2547C23.2325 33.2547 34.8344 22.6918 35.307 22.2418C35.7855 21.7929 35.6276 21.6955 35.6276 21.6955C35.6549 21.148 34.769 21.6955 34.769 21.6955L19.3968 31.5851L12.995 29.4049C12.995 29.4049 12.0118 29.0522 11.9191 28.2768C11.8218 27.5072 13.027 27.0893 13.027 27.0893L38.4799 16.9777C38.4799 16.9777 40.5723 16.0454 40.5723 17.5893L36.0396 40.7371Z" fill="#DCDCDC"/>
</svg>
