<svg width="57" height="57" viewBox="0 0 57 57" fill="none" xmlns="http://www.w3.org/2000/svg">
<path d="M35.7982 4.75H21.2266C7.91661 4.75 4.75 7.91661 4.75 21.2018V35.7734C4.75 49.0832 7.89198 52.25 21.2018 52.25H35.7734C49.0834 52.25 52.25 49.108 52.25 35.7981V21.2266C52.25 7.91661 49.108 4.75 35.7982 4.75ZM43.0963 38.6432H39.6328C38.3217 38.6432 37.9258 37.5793 35.5756 35.2291C33.5221 33.25 32.6562 33.0025 32.1367 33.0025C31.4193 33.0025 31.2213 33.2004 31.2213 34.19V37.3072C31.2213 38.1484 30.9492 38.6432 28.7475 38.6432C26.6109 38.4996 24.539 37.8506 22.7023 36.7495C20.8657 35.6483 19.317 34.1267 18.1836 32.3098C15.493 28.9608 13.6209 25.0303 12.7162 20.8307C12.7162 20.3111 12.9141 19.8411 13.9037 19.8411H17.3672C18.2578 19.8411 18.5795 20.2369 18.9258 21.1523C20.608 26.1002 23.4779 30.4049 24.6406 30.4049C25.0859 30.4049 25.2838 30.207 25.2838 29.0938V23.9973C25.1354 21.6719 23.8984 21.4739 23.8984 20.6328C23.9147 20.4109 24.0169 20.2041 24.1831 20.0563C24.3494 19.9084 24.5668 19.8312 24.7891 19.8411H30.2318C30.974 19.8411 31.2213 20.2122 31.2213 21.1028V27.9805C31.2213 28.7227 31.543 28.97 31.7656 28.97C32.2109 28.97 32.5572 28.7227 33.3736 27.9062C35.128 25.7668 36.5615 23.3833 37.6289 20.8307C37.7379 20.5235 37.9444 20.2605 38.2169 20.0818C38.4894 19.9031 38.813 19.8185 39.1381 19.8411H42.6016C43.6406 19.8411 43.8633 20.3606 43.6406 21.1028C42.3804 23.925 40.8211 26.604 38.9896 29.0938C38.6185 29.6627 38.4701 29.9596 38.9896 30.6275C39.3359 31.1471 40.5482 32.1614 41.3646 33.1262C42.5521 34.3107 43.5381 35.6812 44.2838 37.1836C44.5807 38.1484 44.0859 38.6432 43.0963 38.6432Z" fill="#DCDCDC"/>
</svg>
